<svg width="89" height="31" viewBox="0 0 89 31" fill="none" xmlns="http://www.w3.org/2000/svg">
<path d="M88.7262 30.1651H69.4075V26.26H88.7262V30.1651Z" fill="#dddddd"/>
<path d="M66.4343 30.1656H63.4156C60.9203 30.1656 59.5118 28.8026 59.2702 26.5977H59.069C58.3043 29.1634 56.0103 30.6467 52.7905 30.6467C48.6449 30.6467 45.9484 28.3215 45.9484 24.4329C45.9484 20.2637 49.0475 18.1791 55.1651 18.1791H58.8276V16.8161C58.8276 14.2103 57.5798 12.8473 54.7223 12.8473C52.1063 12.8473 50.6172 13.9698 49.4901 15.5733L46.5522 13.0878C47.84 10.8028 50.7379 8.99878 55.2455 8.99878C60.6789 8.99878 63.9792 11.6045 63.9792 16.5755V26.26H66.4343V30.1656ZM54.521 27.1189C56.9762 27.1189 58.8276 25.876 58.8276 23.9117V21.1457H55.2858C52.4685 21.1457 51.0598 22.0677 51.0598 23.7915V24.5933C51.0598 26.2369 52.388 27.1189 54.521 27.1189Z" fill="#dddddd"/>
<path d="M36.7187 30.1656V26.7043H36.4368C35.1225 29.1897 33.4183 30.6467 30.2387 30.6467C25.4895 30.6467 22.31 27.1189 22.31 19.8228C22.31 12.5266 25.4895 8.9988 30.2387 8.9988C33.4183 8.9988 35.1225 10.0824 36.4368 12.5679H36.7187V0.5H41.8702V30.1656H36.7187ZM32.4121 26.5575C34.7464 26.5575 36.7187 25.4351 36.7187 23.0699V16.5755C36.7187 14.2103 34.7464 13.0878 32.4121 13.0878C29.4338 13.0878 27.7032 15.0522 27.7032 18.1791V21.4664C27.7032 24.5933 29.4338 26.5575 32.4121 26.5575Z" fill="#dddddd"/>
<path d="M10.1825 30.6467C3.82349 30.6467 0 26.4775 0 19.8226C0 13.168 3.86373 8.99876 10.1423 8.99876C14.5293 8.99876 17.1453 11.0032 18.5137 13.9698L14.5293 16.1345C13.8048 14.3706 12.4766 13.168 10.1423 13.168C7.12375 13.168 5.39312 15.0922 5.39312 18.0989V21.5465C5.39312 24.513 7.08352 26.4775 10.2228 26.4775C12.6779 26.4775 14.0463 25.2346 14.972 23.3906L18.8357 25.6757C17.4271 28.6021 14.65 30.6467 10.1825 30.6467Z" fill="#dddddd"/>
</svg>
